<?xml version="1.0" encoding="UTF-8" standalone="no"?>
<svg
   xmlns:dc="http://purl.org/dc/elements/1.1/"
   xmlns:cc="http://creativecommons.org/ns#"
   xmlns:rdf="http://www.w3.org/1999/02/22-rdf-syntax-ns#"
   xmlns:svg="http://www.w3.org/2000/svg"
   xmlns="http://www.w3.org/2000/svg"
   viewBox="0 0 666.66669 666.66669"
   height="666.66669"
   width="666.66669"
   xml:space="preserve"
   id="svg2"
   version="1.1"><metadata
     id="metadata8"><rdf:RDF><cc:Work
         rdf:about=""><dc:format>image/svg+xml</dc:format><dc:type
           rdf:resource="http://purl.org/dc/dcmitype/StillImage" /></cc:Work></rdf:RDF></metadata><defs
     id="defs6"><clipPath
       id="clipPath20"
       clipPathUnits="userSpaceOnUse"><path
         id="path18"
         d="M 0,0 H 500 V 500 H 0 Z" /></clipPath></defs><g
     transform="matrix(1.3333333,0,0,-1.3333333,0,666.66667)"
     id="g10"><g
       id="g12" /><g
       id="g14"><g
         clip-path="url(#clipPath20)"
         id="g16"><path
           id="path22"
           style="fill:#ffffff;fill-opacity:1;fill-rule:nonzero;stroke:none"
           d="M 0,500 H 500 V 0 H 0 Z" /><g
           transform="matrix(1,0,0,-1,12.61074,487.6731)"
           id="g24"><path
             id="path26"
             style="fill:none;stroke:#000000;stroke-width:25;stroke-linecap:butt;stroke-linejoin:miter;stroke-miterlimit:4;stroke-dasharray:none;stroke-opacity:1"
             d="m 405.2488,69.61285 c 92.7063,92.81715 92.7063,243.30345 0,336.12055 -92.7062,92.8172 -243.0128,92.8172 -335.71909,0 -92.70628,-92.8171 -92.70628,-243.3034 0,-336.12055 92.70629,-92.81713 243.01289,-92.81713 335.71909,0 z" /></g><g
           transform="matrix(1,0,0,-1,177.1999,412.091)"
           id="g28"><path
             id="path30"
             style="fill:none;stroke:#000000;stroke-width:25;stroke-linecap:butt;stroke-linejoin:miter;stroke-miterlimit:4;stroke-dasharray:none;stroke-opacity:1"
             d="m 124.2776,21.05798 c 28.4302,28.07731 28.4302,73.59962 0,101.67692 -28.43024,28.0773 -74.52472,28.0773 -102.95494,0 -28.430214,-28.0773 -28.430214,-73.59961 0,-101.67692 28.43022,-28.077308 74.5247,-28.077308 102.95494,0 z" /></g><g
           transform="matrix(1,0,0,-1,87.43379,220.838)"
           id="g32"><path
             id="path34"
             style="fill:none;stroke:#000000;stroke-width:25;stroke-linecap:butt;stroke-linejoin:miter;stroke-miterlimit:4;stroke-dasharray:none;stroke-opacity:1"
             d="M 1.53867,145.7623 C -11.66139,69.88652 61.70953,1.837263 158.6607,0.03646659 256.2013,-1.775278 333.7953,64.17705 324.3531,140.8696" /></g></g></g></g></svg>